<?xml version="1.0" encoding="UTF-8" ?>
<!DOCTYPE svg PUBLIC "-//W3C//DTD SVG 1.1//EN" "http://www.w3.org/Graphics/SVG/1.1/DTD/svg11.dtd">
<svg width="361pt" height="341pt" viewBox="0 0 361 341" version="1.1" xmlns="http://www.w3.org/2000/svg">
<g id="#f7f7f7ff">
</g>
<g id="#000000ff">
<path fill="#000000" opacity="1.00" d=" M 184.35 40.33 C 186.83 39.15 190.15 41.12 190.12 43.92 C 190.26 57.28 190.20 70.66 190.15 84.02 C 190.39 87.04 186.77 89.33 184.14 87.85 C 182.26 87.03 181.65 84.88 181.79 83.00 C 181.81 70.31 181.78 57.63 181.80 44.95 C 181.63 43.07 182.52 41.05 184.35 40.33 Z" />
<path fill="#000000" opacity="1.00" d=" M 153.15 61.22 C 155.68 60.24 158.74 62.35 158.65 65.08 C 158.75 71.36 158.71 77.66 158.67 83.95 C 158.84 86.42 156.47 88.64 154.00 88.26 C 151.88 88.06 150.20 86.05 150.33 83.93 C 150.25 77.94 150.31 71.95 150.31 65.96 C 150.12 63.97 151.14 61.82 153.15 61.22 Z" />
<path fill="#000000" opacity="1.00" d=" M 216.22 61.19 C 218.74 60.29 221.74 62.39 221.64 65.09 C 221.80 70.40 221.61 75.72 221.71 81.04 C 221.61 83.13 222.09 85.71 220.26 87.23 C 218.00 89.48 213.61 87.90 213.39 84.71 C 213.15 78.46 213.34 72.19 213.29 65.93 C 213.10 63.92 214.18 61.75 216.22 61.19 Z" />
<path fill="#000000" opacity="1.00" d=" M 175.52 96.81 C 189.80 94.30 204.96 97.05 217.36 104.60 C 229.57 111.92 239.08 123.65 243.63 137.15 C 248.22 150.54 247.92 165.52 242.80 178.71 C 237.95 191.36 228.73 202.24 217.08 209.14 C 204.85 216.48 189.98 219.21 175.93 216.83 C 160.06 214.26 145.44 205.02 136.22 191.86 C 128.06 180.38 124.14 165.99 125.31 151.95 C 126.36 137.94 132.53 124.42 142.35 114.38 C 151.19 105.23 162.98 98.99 175.52 96.81 M 174.42 105.59 C 161.96 108.38 150.67 115.91 143.28 126.31 C 135.70 136.81 132.29 150.19 133.88 163.05 C 135.58 178.25 144.45 192.40 157.26 200.72 C 168.03 207.84 181.48 210.68 194.22 208.63 C 209.29 206.35 223.07 197.03 230.90 183.97 C 238.16 172.12 240.33 157.33 236.87 143.88 C 233.42 129.91 223.86 117.64 211.24 110.75 C 200.14 104.61 186.78 102.78 174.42 105.59 Z" />
<path fill="#000000" opacity="1.00" d=" M 182.47 118.43 C 184.03 116.72 187.02 116.75 188.54 118.50 C 190.20 120.27 189.50 122.90 189.72 125.08 C 197.83 126.93 204.26 134.62 203.89 143.04 C 203.83 146.04 200.07 147.99 197.57 146.33 C 195.62 145.33 195.65 142.94 195.28 141.09 C 194.72 135.92 189.13 132.24 184.13 133.38 C 179.36 134.21 175.81 139.12 176.53 143.92 C 177.01 148.61 181.36 152.36 186.06 152.26 C 195.16 152.14 203.43 159.83 203.86 168.93 C 204.69 177.67 198.17 185.95 189.72 187.84 C 189.51 190.22 190.28 193.29 188.08 194.97 C 185.91 196.85 182.13 195.66 181.45 192.87 C 181.18 191.12 181.27 189.35 181.23 187.59 C 173.62 185.34 167.75 177.96 168.09 169.90 C 168.13 166.85 172.03 164.87 174.52 166.66 C 176.42 167.73 176.32 170.11 176.72 171.96 C 177.34 176.72 182.24 180.27 186.96 179.65 C 192.08 179.29 196.19 174.17 195.46 169.09 C 195.01 164.37 190.64 160.55 185.91 160.68 C 176.85 160.76 168.58 153.15 168.12 144.07 C 167.29 135.68 173.24 127.65 181.23 125.35 C 181.47 123.06 180.66 120.25 182.47 118.43 Z" />
<path fill="#000000" opacity="1.00" d=" M 72.61 215.92 C 72.41 213.51 74.41 211.13 76.93 211.34 C 87.67 211.54 98.40 211.93 109.14 212.19 C 111.18 212.04 113.47 212.96 114.09 215.08 C 114.49 217.87 114.14 220.71 114.10 223.51 C 126.86 216.87 142.23 215.45 155.94 219.88 C 163.84 222.17 170.51 227.93 178.94 228.46 C 190.30 229.09 201.69 229.05 213.05 229.56 C 222.10 230.08 230.39 235.69 234.76 243.55 C 246.01 238.25 257.24 232.88 268.51 227.62 C 278.24 222.97 291.08 227.39 295.81 237.08 C 296.82 239.17 295.52 241.53 293.62 242.55 C 269.09 258.41 244.57 274.31 220.02 290.14 C 209.07 295.88 195.99 297.33 183.94 294.76 C 166.26 289.97 148.68 284.75 130.98 280.02 C 124.05 278.34 118.26 283.28 112.43 286.10 C 112.18 288.15 112.73 290.59 111.23 292.27 C 109.98 293.86 107.81 293.67 106.01 293.65 C 95.65 293.30 85.29 293.12 74.93 292.75 C 72.41 292.90 70.26 290.51 70.64 288.02 C 71.25 263.99 71.94 239.95 72.61 215.92 M 80.89 219.82 C 80.30 241.38 79.69 262.94 79.12 284.50 C 87.42 284.72 95.71 284.95 104.01 285.18 C 104.61 263.61 105.21 242.04 105.79 220.47 C 97.49 220.26 89.19 220.02 80.89 219.82 M 113.81 233.47 C 113.48 247.79 113.02 262.11 112.66 276.44 C 118.67 272.76 125.83 270.03 132.94 271.86 C 150.39 276.53 167.73 281.61 185.15 286.42 C 195.35 288.72 206.50 287.64 215.84 282.85 C 239.21 267.74 262.62 252.68 285.92 237.47 C 282.11 234.44 276.75 233.10 272.18 235.18 C 260.60 240.52 249.15 246.13 237.56 251.47 C 237.71 253.62 238.06 255.80 237.74 257.96 C 237.25 259.99 235.15 261.28 233.12 261.04 C 216.72 260.62 200.32 260.18 183.93 259.68 C 181.46 259.83 179.23 257.50 179.61 255.03 C 179.79 252.87 181.86 251.13 184.02 251.34 C 199.09 251.66 214.16 252.20 229.23 252.54 C 227.50 244.93 220.87 238.61 212.99 238.00 C 200.97 237.30 188.88 237.63 176.88 236.66 C 167.14 235.84 159.48 228.94 150.08 226.98 C 137.78 223.98 124.32 226.41 113.81 233.47 Z" />
</g>
</svg>
