<?xml version="1.0" encoding="UTF-8" ?>
<!DOCTYPE svg PUBLIC "-//W3C//DTD SVG 1.1//EN" "http://www.w3.org/Graphics/SVG/1.1/DTD/svg11.dtd">
<svg width="297pt" height="293pt" viewBox="0 0 297 293" version="1.1" xmlns="http://www.w3.org/2000/svg">
<g id="#f7f7f7ff">
</g>
<g id="#000000ff">
<path fill="#000000" opacity="1.00" d=" M 19.04 16.95 C 20.36 15.04 22.86 14.94 24.96 14.98 C 57.68 15.04 90.40 14.95 123.12 15.03 C 125.93 14.77 128.60 17.18 128.49 20.03 C 128.56 22.87 125.89 25.23 123.10 24.97 C 108.06 25.04 93.03 24.98 78.00 25.00 C 77.99 40.70 78.01 56.40 78.00 72.10 C 78.04 73.87 77.65 75.89 76.05 76.90 C 72.30 79.22 68.20 80.88 64.32 82.94 C 68.12 87.58 68.98 94.05 66.65 99.57 C 69.26 102.19 71.88 104.80 74.49 107.42 C 84.35 100.94 98.83 102.33 106.60 111.42 C 109.39 114.95 105.39 120.45 101.17 119.04 C 97.78 117.20 95.04 113.93 90.94 113.58 C 82.25 111.77 73.28 119.17 73.36 128.02 C 73.00 132.74 75.74 136.70 78.55 140.18 C 81.37 144.38 75.34 149.75 71.43 146.61 C 62.34 138.83 60.94 124.36 67.42 114.49 C 64.80 111.87 62.19 109.24 59.55 106.63 C 53.44 109.26 45.67 107.98 41.49 102.58 C 36.74 97.05 36.97 88.39 41.71 82.93 C 37.82 80.87 33.73 79.19 29.97 76.91 C 28.34 75.91 27.95 73.87 28.00 72.10 C 27.99 56.41 28.00 40.71 28.00 25.02 C 25.71 24.95 23.34 25.24 21.10 24.62 C 18.14 23.51 17.00 19.40 19.04 16.95 M 38.00 25.00 C 38.00 39.96 38.00 54.93 38.00 69.89 C 43.00 72.39 48.00 74.91 53.00 77.41 C 58.00 74.91 63.00 72.42 68.00 69.92 C 68.00 54.95 68.00 39.97 68.00 25.00 C 58.00 25.00 48.00 25.00 38.00 25.00 M 50.49 88.68 C 47.24 90.38 47.23 95.57 50.46 97.30 C 53.58 99.36 58.15 96.69 58.00 93.00 C 58.15 89.31 53.61 86.65 50.49 88.68 Z" />
<path fill="#000000" opacity="1.00" d=" M 143.44 15.71 C 146.57 13.64 151.17 16.29 151.00 20.01 C 151.14 23.71 146.57 26.35 143.45 24.29 C 140.25 22.57 140.24 17.43 143.44 15.71 Z" />
<path fill="#000000" opacity="1.00" d=" M 164.26 17.36 C 165.39 15.34 167.83 14.87 169.96 14.99 C 203.02 15.05 236.08 14.92 269.14 15.06 C 273.09 14.88 275.52 20.12 272.93 23.08 C 270.82 25.82 266.98 24.82 264.00 25.02 C 264.01 40.36 263.98 55.71 264.02 71.05 C 264.04 73.12 264.00 75.68 262.03 76.92 C 258.29 79.22 254.19 80.88 250.31 82.94 C 255.19 88.59 255.22 97.61 250.07 103.08 C 245.80 108.11 238.34 109.14 232.44 106.64 C 229.82 109.26 227.20 111.88 224.57 114.49 C 231.06 124.37 229.65 138.86 220.54 146.63 C 216.93 149.43 211.35 145.19 213.03 140.94 C 214.51 138.20 217.11 136.10 217.91 132.98 C 220.21 126.33 217.02 118.41 210.79 115.17 C 205.74 112.38 198.99 112.81 194.52 116.54 C 192.67 118.00 190.51 120.02 187.94 118.96 C 184.60 118.00 183.30 113.27 185.87 110.84 C 193.85 102.29 207.82 101.07 217.51 107.43 C 220.12 104.80 222.74 102.20 225.35 99.58 C 223.00 94.05 223.87 87.56 227.71 82.92 C 223.82 80.88 219.74 79.19 215.98 76.92 C 214.35 75.93 213.94 73.89 214.00 72.12 C 213.99 56.41 214.00 40.70 214.00 25.00 C 198.94 24.98 183.89 25.05 168.83 24.97 C 164.94 25.41 162.01 20.59 164.26 17.36 M 224.00 25.00 C 224.00 39.96 224.00 54.93 224.00 69.89 C 229.00 72.39 234.00 74.91 239.00 77.41 C 244.00 74.91 249.00 72.42 254.00 69.92 C 254.00 54.94 254.00 39.97 254.00 25.00 C 244.00 25.00 234.00 25.00 224.00 25.00 M 236.47 88.69 C 233.23 90.41 233.24 95.61 236.49 97.31 C 239.60 99.33 244.11 96.70 244.00 93.04 C 244.18 89.32 239.60 86.63 236.47 88.69 Z" />
<path fill="#000000" opacity="1.00" d=" M 140.16 105.22 C 141.67 103.39 143.25 100.95 145.94 101.01 C 148.66 100.86 150.28 103.30 151.78 105.16 C 159.33 114.99 166.28 125.61 169.82 137.60 C 177.89 133.33 186.98 130.89 196.13 131.05 C 198.68 130.98 200.98 133.27 200.94 135.82 C 201.03 144.20 201.12 152.60 200.81 160.98 C 204.38 160.91 209.89 160.27 210.85 164.89 C 211.60 178.68 204.89 192.33 194.29 201.01 C 201.57 201.04 208.85 200.91 216.13 201.05 C 219.45 200.91 222.06 204.79 220.60 207.80 C 218.61 212.29 216.21 216.58 214.09 221.00 C 225.73 221.02 237.37 220.97 249.01 221.02 C 257.50 220.93 265.79 225.59 270.21 232.82 C 275.07 240.45 275.23 250.75 270.60 258.53 C 266.29 266.10 257.80 271.05 249.07 270.98 C 182.39 271.03 115.71 270.98 49.02 271.00 C 44.68 270.98 40.23 271.26 36.01 269.98 C 28.71 267.88 22.53 262.26 19.76 255.17 C 16.66 247.49 17.76 238.30 22.61 231.58 C 27.18 225.05 35.00 220.97 42.98 221.02 C 54.62 220.97 66.27 221.02 77.92 221.00 C 75.79 216.60 73.42 212.32 71.42 207.86 C 69.89 204.81 72.57 200.86 75.95 201.05 C 83.20 200.91 90.45 201.03 97.71 201.01 C 87.10 192.33 80.38 178.66 81.15 164.86 C 82.14 160.26 87.62 160.92 91.18 160.98 C 90.87 152.63 90.98 144.26 91.05 135.91 C 90.97 133.33 93.26 131.00 95.84 131.05 C 105.00 130.89 114.10 133.35 122.19 137.58 C 125.70 125.61 132.65 115.04 140.16 105.22 M 131.09 143.60 C 137.36 148.89 142.51 155.47 146.00 162.90 C 149.48 155.47 154.64 148.89 160.91 143.60 C 158.78 132.58 152.42 123.02 146.00 114.04 C 139.58 123.02 133.21 132.58 131.09 143.60 M 151.89 176.51 C 157.65 170.25 164.90 165.26 173.12 162.89 C 178.82 161.06 184.85 160.91 190.78 160.98 C 191.15 154.40 190.97 147.80 190.99 141.22 C 172.18 143.19 155.77 158.00 151.89 176.51 M 101.01 141.22 C 101.04 147.81 100.85 154.40 101.22 160.98 C 107.48 160.86 113.85 161.13 119.83 163.18 C 127.68 165.63 134.56 170.51 140.11 176.51 C 138.54 170.47 136.17 164.57 132.41 159.54 C 125.10 149.38 113.40 142.71 101.01 141.22 M 91.29 171.01 C 93.13 183.08 101.49 193.91 112.87 198.42 C 121.67 202.20 131.42 200.71 140.71 200.98 C 138.86 188.95 130.55 178.10 119.18 173.60 C 110.37 169.80 100.60 171.28 91.29 171.01 M 172.84 173.58 C 161.46 178.09 153.13 188.93 151.29 200.98 C 160.60 200.72 170.36 202.19 179.19 198.40 C 190.55 193.88 198.85 183.05 200.71 171.01 C 191.41 171.29 181.64 169.79 172.84 173.58 M 84.10 211.00 C 85.76 214.34 87.43 217.67 89.10 221.00 C 127.03 221.00 164.97 221.00 202.90 221.00 C 204.57 217.67 206.24 214.34 207.91 211.00 C 166.64 211.00 125.37 211.00 84.10 211.00 M 38.45 231.71 C 31.31 233.84 26.61 241.80 28.33 249.09 C 29.80 256.95 38.31 262.56 46.12 260.66 C 53.96 259.18 59.54 250.69 57.66 242.90 C 56.12 234.48 46.55 228.86 38.45 231.71 M 63.06 230.99 C 69.57 239.68 69.57 252.32 63.06 261.01 C 84.02 260.99 104.98 260.99 125.94 261.01 C 119.43 252.33 119.42 239.67 125.93 230.99 C 104.98 231.01 84.02 231.01 63.06 230.99 M 141.47 231.70 C 134.30 233.84 129.58 241.84 131.34 249.15 C 132.84 256.98 141.31 262.54 149.09 260.66 C 157.22 259.16 162.84 250.14 160.50 242.18 C 158.58 234.12 149.32 228.97 141.47 231.70 M 166.07 230.99 C 172.57 239.67 172.57 252.33 166.06 261.01 C 187.02 260.99 207.98 260.99 228.93 261.01 C 222.43 252.33 222.43 239.67 228.93 230.99 C 207.97 231.01 187.02 231.01 166.07 230.99 M 244.46 231.70 C 237.29 233.84 232.58 241.83 234.34 249.14 C 235.83 256.94 244.24 262.50 252.01 260.68 C 259.91 259.25 265.55 250.73 263.66 242.90 C 262.13 234.49 252.56 228.86 244.46 231.70 Z" />
<path fill="#000000" opacity="1.00" d=" M 40.44 241.71 C 43.56 239.63 48.15 242.28 48.01 245.99 C 48.16 249.71 43.55 252.38 40.43 250.28 C 37.24 248.55 37.24 243.43 40.44 241.71 Z" />
<path fill="#000000" opacity="1.00" d=" M 143.45 241.70 C 146.55 239.64 151.12 242.26 151.01 245.95 C 151.19 249.67 146.60 252.36 143.47 250.30 C 140.24 248.59 140.23 243.43 143.45 241.70 Z" />
<path fill="#000000" opacity="1.00" d=" M 246.41 241.73 C 249.54 239.59 254.21 242.30 254.01 246.06 C 254.11 249.73 249.57 252.34 246.47 250.30 C 243.25 248.60 243.22 243.47 246.41 241.73 Z" />
</g>
<g id="#eefaffff">
<path fill="#eefaff" opacity="1.00" d=" M 63.06 230.99 C 84.02 231.01 104.98 231.01 125.93 230.99 C 119.42 239.67 119.43 252.33 125.94 261.01 C 104.98 260.99 84.02 260.99 63.06 261.01 C 69.57 252.32 69.57 239.68 63.06 230.99 Z" />
<path fill="#eefaff" opacity="1.00" d=" M 166.07 230.99 C 187.02 231.01 207.97 231.01 228.93 230.99 C 222.43 239.67 222.43 252.33 228.93 261.01 C 207.98 260.99 187.02 260.99 166.06 261.01 C 172.57 252.33 172.57 239.67 166.07 230.99 Z" />
</g>
<g id="#b3f1ffff">
<path fill="#b3f1ff" opacity="1.00" d=" M 50.49 88.68 C 53.61 86.65 58.15 89.31 58.00 93.00 C 58.15 96.69 53.58 99.36 50.46 97.30 C 47.23 95.57 47.24 90.38 50.49 88.68 Z" />
<path fill="#b3f1ff" opacity="1.00" d=" M 38.45 231.71 C 46.55 228.86 56.12 234.48 57.66 242.90 C 59.54 250.69 53.96 259.18 46.12 260.66 C 38.31 262.56 29.80 256.95 28.33 249.09 C 26.61 241.80 31.31 233.84 38.45 231.71 M 40.44 241.71 C 37.24 243.43 37.24 248.55 40.43 250.28 C 43.55 252.38 48.16 249.71 48.01 245.99 C 48.15 242.28 43.56 239.63 40.44 241.71 Z" />
<path fill="#b3f1ff" opacity="1.00" d=" M 141.47 231.70 C 149.32 228.97 158.58 234.12 160.50 242.18 C 162.84 250.14 157.22 259.16 149.09 260.66 C 141.31 262.54 132.84 256.98 131.34 249.15 C 129.58 241.84 134.30 233.84 141.47 231.70 M 143.45 241.70 C 140.23 243.43 140.24 248.59 143.47 250.30 C 146.60 252.36 151.19 249.67 151.01 245.95 C 151.12 242.26 146.55 239.64 143.45 241.70 Z" />
<path fill="#b3f1ff" opacity="1.00" d=" M 244.46 231.70 C 252.56 228.86 262.13 234.49 263.66 242.90 C 265.55 250.73 259.91 259.25 252.01 260.68 C 244.24 262.50 235.83 256.94 234.34 249.14 C 232.58 241.83 237.29 233.84 244.46 231.70 M 246.41 241.73 C 243.22 243.47 243.25 248.60 246.47 250.30 C 249.57 252.34 254.11 249.73 254.01 246.06 C 254.21 242.30 249.54 239.59 246.41 241.73 Z" />
</g>
<g id="#d8ec84ff">
<path fill="#d8ec84" opacity="1.00" d=" M 131.09 143.60 C 133.21 132.58 139.58 123.02 146.00 114.04 C 152.42 123.02 158.78 132.58 160.91 143.60 C 154.64 148.89 149.48 155.47 146.00 162.90 C 142.51 155.47 137.36 148.89 131.09 143.60 Z" />
<path fill="#d8ec84" opacity="1.00" d=" M 151.89 176.51 C 155.77 158.00 172.18 143.19 190.99 141.22 C 190.97 147.80 191.15 154.40 190.78 160.98 C 184.85 160.91 178.82 161.06 173.12 162.89 C 164.90 165.26 157.65 170.25 151.89 176.51 Z" />
<path fill="#d8ec84" opacity="1.00" d=" M 101.01 141.22 C 113.40 142.71 125.10 149.38 132.41 159.54 C 136.17 164.57 138.54 170.47 140.11 176.51 C 134.56 170.51 127.68 165.63 119.83 163.18 C 113.85 161.13 107.48 160.86 101.22 160.98 C 100.85 154.40 101.04 147.81 101.01 141.22 Z" />
<path fill="#d8ec84" opacity="1.00" d=" M 91.29 171.01 C 100.60 171.28 110.37 169.80 119.18 173.60 C 130.55 178.10 138.86 188.95 140.71 200.98 C 131.42 200.71 121.67 202.20 112.87 198.42 C 101.49 193.91 93.13 183.08 91.29 171.01 Z" />
<path fill="#d8ec84" opacity="1.00" d=" M 172.84 173.58 C 181.64 169.79 191.41 171.29 200.71 171.01 C 198.85 183.05 190.55 193.88 179.19 198.40 C 170.36 202.19 160.60 200.72 151.29 200.98 C 153.13 188.93 161.46 178.09 172.84 173.58 Z" />
</g>
<g id="#c1b0b5ff">
<path fill="#c1b0b5" opacity="1.00" d=" M 84.10 211.00 C 125.37 211.00 166.64 211.00 207.91 211.00 C 206.24 214.34 204.57 217.67 202.90 221.00 C 164.97 221.00 127.03 221.00 89.10 221.00 C 87.43 217.67 85.76 214.34 84.10 211.00 Z" />
</g>
</svg>
